<svg xmlns="http://www.w3.org/2000/svg" width="400" height="422" fill="none" viewBox="0 0 400 422">
  <circle cx="200" cy="222" r="200" fill="#70E575"/>
  <g filter="url(#a)">
    <path fill="#fff" d="M214.627 150.6c-5.466-3.333-10.8-5-16-5-8.4 0-17.6 1.333-27.6 4l-10.8 2.6c-3.2.8-5.666 1.2-7.4 1.2-4 0-6-1.467-6-4.4 0-1.733 1.467-3.867 4.4-6.4 2.8-2.667 6.6-5.2 11.4-7.6 11.867-5.867 24.734-8.8 38.6-8.8 19.867 0 32.6 3.4 38.2 10.2 1.6 1.867 2.4 4.467 2.4 7.8-.266 12.933-6.266 47.333-18 103.2 15.734-6.4 25.334-11.667 28.8-15.8 3.6-4.133 6.4-6.2 8.4-6.2s3 2.067 3 6.2-1.266 7.733-3.8 10.8c-2.4 3.067-6.266 6.533-11.6 10.4-5.2 3.867-14.8 8.8-28.8 14.8-1.066 5.333-3.066 11.267-6 17.8-10 27.6-26.333 41.4-49 41.4-11.066 0-20.466-2.4-28.2-7.2-7.733-4.8-11.6-12.2-11.6-22.2 0-3.6 1.867-7 5.6-10.2 3.6-3.2 8.934-6.6 16-10.2 6.934-3.467 20.534-8.8 40.8-16 .8-4.667 1.467-9 2-13 .534-4.133 1.134-7.667 1.8-10.6 2.8-19.067 8.334-41.533 16.6-67.4 2.4-7.333 4.667-13.8 6.8-19.4Zm-63.2 157.4c4 2.133 7.8 3.2 11.4 3.2 3.6.133 6.334-.667 8.2-2.4 1.867-1.6 3.867-4.267 6-8 2.267-3.733 4.467-10.267 6.6-19.6-6.933 2.4-12.866 4.4-17.8 6-4.8 1.6-8.733 3.067-11.8 4.4-2.933 1.333-5.066 2.6-6.4 3.8-1.466 1.2-2.2 2.667-2.2 4.4 0 3.333 2 6.067 6 8.2Z"/>
  </g>
  <defs>
    <filter id="a" width="147" height="208.6" x="121.027" y="126.2" color-interpolation-filters="sRGB" filterUnits="userSpaceOnUse">
      <feFlood flood-opacity="0" result="BackgroundImageFix"/>
      <feColorMatrix in="SourceAlpha" result="hardAlpha" values="0 0 0 0 0 0 0 0 0 0 0 0 0 0 0 0 0 0 127 0"/>
      <feOffset dy="4"/>
      <feGaussianBlur stdDeviation="2"/>
      <feComposite in2="hardAlpha" operator="out"/>
      <feColorMatrix values="0 0 0 0 0 0 0 0 0 0 0 0 0 0 0 0 0 0 0.25 0"/>
      <feBlend in2="BackgroundImageFix" result="effect1_dropShadow_2002_18"/>
      <feBlend in="SourceGraphic" in2="effect1_dropShadow_2002_18" result="shape"/>
    </filter>
  </defs>
</svg>
